<svg version="1.1" id="Layer_1" xmlns="http://www.w3.org/2000/svg" xmlns:xlink="http://www.w3.org/1999/xlink" x="0px" y="0px"
	 width="100%" viewBox="0 0 934 816" enable-background="new 0 0 934 816" xml:space="preserve">
<path fill="#222931" opacity="1.000000" stroke="none" 
	d="
M763.048584,261.015991 
	C763.176025,262.329529 763.414612,263.643005 763.414795,264.956573 
	C763.421875,313.532043 763.406921,362.107483 763.242432,411.513855 
	C762.476501,413.650024 762.003357,415.045685 761.228149,416.246429 
	C754.109985,427.272278 749.430237,439.245087 749.107910,452.393463 
	C748.711609,468.558197 753.811035,483.233551 763.198364,496.722046 
	C763.312256,497.427307 763.415344,497.818604 763.518433,498.209900 
	C763.491638,536.336731 763.473389,574.463623 763.424744,612.590454 
	C763.419861,616.416565 763.230469,620.242493 762.830750,624.757935 
	C762.486511,626.355225 762.438171,627.263062 762.389832,628.170837 
	C762.291809,628.574280 762.193848,628.977783 761.842529,629.901733 
	C761.535400,631.009644 761.481628,631.596985 761.427856,632.184326 
	C760.838135,633.743286 760.248413,635.302246 759.263672,637.342468 
	C758.053162,638.863953 757.237671,639.904175 756.251587,640.550659 
	C754.689697,639.420044 753.298340,638.682983 751.906982,637.945984 
	C751.662292,638.595947 751.417603,639.245972 751.172913,639.895996 
	C752.923767,640.276672 754.674683,640.657349 756.536072,641.367065 
	C756.768921,641.892578 756.891235,642.089050 757.013550,642.285645 
	C756.629211,642.847412 756.244751,643.409180 755.397217,644.373169 
	C754.296936,645.855286 753.659668,646.935181 753.022461,648.015076 
	C751.200745,649.906067 749.379028,651.797058 746.978455,653.933716 
	C738.934204,657.799316 731.468750,661.419189 724.003296,665.039062 
	C723.281616,665.074707 722.559875,665.110291 721.020386,665.070679 
	C718.203857,665.019653 716.205139,665.065186 714.206360,665.065125 
	C518.430542,665.060852 322.654755,665.053711 126.878960,665.034912 
	C125.297379,665.034729 123.715813,664.872864 121.610550,664.757874 
	C124.855141,657.587646 127.512283,650.847107 135.245041,647.995789 
	C137.356812,647.217163 139.172775,645.636292 141.525940,644.340820 
	C143.224564,643.829468 144.521713,643.400757 146.245361,643.196472 
	C149.662399,643.525391 152.652969,643.721130 155.643524,643.721375 
	C333.733612,643.735413 511.823669,643.733521 689.913757,643.732178 
	C698.243469,643.732117 706.578918,643.915527 714.901184,643.663574 
	C722.963379,643.419617 730.271729,641.153992 735.468140,633.989502 
	C735.891663,633.388977 736.094360,632.925415 736.614624,632.305786 
	C740.909241,627.183533 741.708191,621.329468 741.707947,615.231934 
	C741.704407,527.740601 741.704773,440.249237 741.719116,352.757904 
	C741.720703,342.933014 742.341248,343.857666 732.826599,343.856537 
	C573.342285,343.838013 413.858032,343.838165 254.373749,343.838379 
	C201.712311,343.838440 149.050766,343.895386 96.389603,343.778076 
	C91.788368,343.767822 89.987198,344.870941 89.999969,349.882904 
	C90.161346,413.209564 90.108780,476.536743 90.163132,539.863708 
	C90.164612,541.594055 90.750130,543.323853 90.974724,545.388550 
	C90.744644,546.636108 90.603142,547.549072 90.223854,548.707520 
	C83.839355,560.334534 77.735817,571.739990 71.481552,583.062134 
	C70.830925,584.239990 69.286201,584.923828 68.156342,585.836914 
	C68.172684,481.126587 68.187042,376.416229 68.212090,271.705902 
	C68.213165,267.212067 68.312981,262.718262 68.656616,257.563873 
	C70.480400,252.084442 71.622147,247.091080 73.665054,242.498611 
	C75.496239,238.382095 78.319267,234.706787 80.704727,230.836838 
	C82.301750,229.355453 83.898766,227.874069 86.078568,226.170441 
	C91.587677,223.161911 96.514000,220.375595 101.440323,217.589279 
	C101.787376,217.519440 102.134430,217.449600 102.911720,217.480469 
	C104.036125,217.237503 104.730293,216.893814 105.424469,216.550125 
	C107.374321,216.363876 109.324165,216.177628 112.006691,216.346924 
	C114.560860,216.794846 116.382355,216.968002 118.203857,216.968109 
	C316.512451,216.980530 514.821045,216.982239 713.129639,216.947845 
	C715.060547,216.947510 716.991272,216.458252 718.922119,216.197235 
	C720.024780,216.160065 721.127380,216.122879 722.731567,216.557144 
	C730.882629,220.331024 738.532104,223.633453 746.181580,226.935883 
	C747.780945,228.282654 749.380249,229.629425 751.051392,231.661224 
	C753.817932,237.368423 756.559387,242.366379 759.185242,247.424332 
	C760.285034,249.542801 761.139709,251.788498 762.105835,253.976349 
	C762.321777,254.450821 762.537842,254.925278 762.491089,256.069550 
	C762.501709,258.164917 762.775146,259.590454 763.048584,261.015991 
M475.500000,279.033813 
	C560.979126,279.033600 646.458252,279.033600 731.937378,279.032135 
	C733.770203,279.032104 735.775879,279.475433 737.384888,278.870911 
	C738.852966,278.319366 740.862000,276.690155 740.948730,275.420898 
	C741.299622,270.285431 741.412781,265.060730 740.857788,259.951080 
	C739.586426,248.244675 729.966736,237.820023 712.375488,237.838455 
	C518.422485,238.041733 324.469208,237.957733 130.515991,237.952301 
	C125.350586,237.952148 120.163513,237.659866 115.024498,238.030289 
	C105.672897,238.704376 98.316078,242.635574 93.562187,251.258362 
	C90.004730,257.711029 90.839851,264.496552 90.729736,271.257111 
	C90.603340,279.016663 90.698792,279.027496 98.590736,279.027740 
	C223.893829,279.031281 349.196899,279.032288 475.500000,279.033813 
M388.500000,301.989014 
	C291.671173,301.988983 194.842346,301.988922 98.013519,301.989349 
	C96.680260,301.989380 95.182251,301.615082 94.058578,302.101959 
	C92.856194,302.622955 91.220863,303.897949 91.140404,304.948456 
	C90.810455,309.256348 90.812241,313.618134 91.132011,317.927460 
	C91.212715,319.015106 92.832161,320.749725 93.898094,320.874451 
	C99.157089,321.489838 104.467644,321.951202 109.760124,321.952484 
	C314.584137,322.001312 519.408142,321.993927 724.232178,321.993530 
	C725.565430,321.993530 726.903625,322.061554 728.231262,321.973175 
	C741.006531,321.122833 741.006042,321.115173 741.002502,308.439728 
	C741.000671,301.996185 741.000732,301.990265 734.484314,301.990173 
	C619.489563,301.988861 504.494781,301.989136 388.500000,301.989014 
z"/>
<path fill="#020202" opacity="1.000000" stroke="none" 
	d="
M808.941406,322.072144 
	C791.385315,306.465454 784.458984,287.302612 789.513000,264.748199 
	C794.371216,243.067215 807.987122,228.296005 829.315430,221.925385 
	C852.222961,215.083038 872.853210,220.407547 888.978943,238.119278 
	C905.093872,255.819061 908.731750,276.898254 899.539612,299.002899 
	C890.299255,321.223511 872.852417,333.322510 848.691162,335.009949 
	C833.927490,336.041016 820.806335,331.404755 808.941406,322.072144 
z"/>
<path fill="#040404" opacity="1.000000" stroke="none" 
	d="
M744.292175,127.291687 
	C725.460571,144.686584 703.845825,150.329117 679.846313,142.402145 
	C656.203308,134.592926 642.281128,117.432190 637.740540,92.953087 
	C631.680054,60.279884 654.700012,28.074543 688.729919,21.323067 
	C721.035034,14.913789 754.279419,36.582035 761.022766,68.546257 
	C765.734985,90.883293 760.091858,110.376877 744.292175,127.291687 
M691.270386,110.243790 
	C694.424194,112.412094 697.424072,114.879677 700.800110,116.615952 
	C702.367493,117.422066 705.653381,117.659454 706.480530,116.702591 
	C714.604431,107.304825 723.154419,98.118073 729.985107,87.812073 
	C734.978027,80.278824 732.495544,69.942810 726.753845,64.235085 
	C718.367981,55.898792 707.829224,57.280251 698.466858,67.943054 
	C686.919006,56.754780 671.434814,62.708019 668.282166,75.796234 
	C666.131531,84.724342 668.891663,92.360130 675.663208,98.297562 
	C680.398865,102.449821 685.659424,106.003555 691.270386,110.243790 
z"/>
<path fill="#030303" opacity="1.000000" stroke="none" 
	d="
M118.513474,665.478455 
	C111.687637,677.799622 104.861816,690.120850 97.615967,703.200195 
	C92.599030,694.100952 87.968147,685.727661 83.362915,677.340210 
	C80.404144,671.951416 77.018593,666.736450 74.655441,661.095459 
	C71.227058,652.911560 65.206406,648.048401 57.511776,644.122681 
	C43.759132,637.106323 30.365944,629.385498 15.887410,621.446350 
	C31.843401,612.717712 47.050541,604.398743 62.904510,595.924194 
	C64.799179,594.931519 66.047020,594.094360 67.294861,593.257202 
	C67.635506,593.208069 67.928688,593.063049 68.644585,592.515747 
	C76.748497,578.139343 84.382248,564.069275 92.243759,549.747559 
	C94.085716,546.650208 95.699921,543.804382 97.557701,540.529114 
	C98.544960,542.087402 99.301666,543.145935 99.920692,544.279663 
	C106.760101,556.805664 113.854156,569.203674 120.296188,581.931458 
	C124.027519,589.303650 128.637970,595.112183 136.498749,598.404785 
	C142.133209,600.764893 147.339844,604.148621 152.730392,607.088440 
	C161.260849,611.740845 169.785507,616.403931 178.844971,621.353271 
	C165.693787,628.739136 153.275681,635.713318 140.490021,642.721802 
	C129.209717,646.802246 121.963425,654.335205 118.513474,665.478455 
z"/>
<path fill="#030303" opacity="1.000000" stroke="none" 
	d="
M59.766846,148.949768 
	C36.003132,150.897980 18.589092,139.417221 13.525062,118.801231 
	C8.269939,97.407280 21.102459,75.358810 41.837505,70.155609 
	C64.235756,64.535049 86.264877,77.175293 91.621590,98.721581 
	C97.184250,121.096252 84.241524,142.867584 62.112217,148.364120 
	C61.466755,148.524445 60.828358,148.713226 59.766846,148.949768 
z"/>
<path fill="#060606" opacity="1.000000" stroke="none" 
	d="
M432.841980,787.639893 
	C427.893066,788.975891 423.340973,790.219604 417.940247,791.695129 
	C420.453735,783.056152 422.902405,775.511047 424.760254,767.823181 
	C425.497528,764.772278 425.555267,761.252869 424.824066,758.210815 
	C422.965515,750.478088 420.486847,742.894470 417.921875,734.104675 
	C422.554443,735.445618 426.566833,736.195618 430.240479,737.747437 
	C441.376556,742.451538 452.330261,742.626770 463.464233,737.739868 
	C466.936035,736.216125 470.759766,735.494324 475.330994,734.135254 
	C474.657135,737.100037 474.488678,739.711914 473.485687,741.949585 
	C467.226593,755.913452 467.120148,769.782837 473.458710,783.742554 
	C474.338379,785.679871 474.629120,787.887878 475.148224,789.981506 
	C475.214600,790.249207 475.011810,790.583679 474.780457,791.482666 
	C468.293121,789.663940 461.561066,788.471313 455.418182,785.881287 
	C447.472229,782.531128 440.491150,785.302429 432.841980,787.639893 
z"/>
<path fill="#050505" opacity="1.000000" stroke="none" 
	d="
M116.343903,192.583252 
	C110.273865,182.497131 110.174515,172.546310 116.399483,163.095642 
	C122.800972,153.377014 132.318512,149.649460 143.716156,151.791840 
	C154.347992,153.790268 161.054001,160.529816 164.120285,170.789368 
	C167.728683,182.862823 161.641632,196.227951 150.159302,201.878220 
	C138.391388,207.669006 124.905151,204.060410 116.343903,192.583252 
z"/>
<path fill="#17242D" opacity="1.000000" stroke="none" 
	d="
M763.187561,496.408112 
	C753.811035,483.233551 748.711609,468.558197 749.107910,452.393463 
	C749.430237,439.245087 754.109985,427.272278 761.228149,416.246429 
	C762.003357,415.045685 762.476501,413.650024 763.094727,411.930908 
	C764.298706,411.148193 765.886414,411.146729 766.636475,410.353363 
	C773.812500,402.761963 781.928406,396.524323 791.650269,392.563019 
	C829.938110,376.962158 871.975403,398.251251 882.094604,438.380432 
	C885.628296,452.393646 884.538879,466.077728 878.260010,479.779999 
	C877.554871,480.930176 877.375732,481.663605 877.196594,482.397064 
	C868.475769,501.728973 853.573730,513.853149 833.212891,518.948669 
	C806.707825,525.581787 784.375732,517.697998 765.449829,497.713989 
	C764.498047,496.939728 763.842773,496.673920 763.187561,496.408112 
M876.690918,476.667145 
	C877.434448,473.639282 878.108215,470.592285 878.932190,467.586487 
	C888.277954,433.494720 861.943665,391.034729 817.076965,390.890717 
	C773.908691,390.752136 743.396301,432.620544 756.116272,473.874817 
	C765.333740,503.769867 796.667603,522.903809 827.228271,517.100830 
	C849.948486,512.786682 866.037598,499.820282 876.387451,478.608459 
	C876.455872,478.209320 876.524353,477.810181 876.690918,476.667145 
z"/>
<path fill="#1C2830" opacity="1.000000" stroke="none" 
	d="
M821.499268,58.501076 
	C840.169189,41.100544 865.990784,36.910568 888.009766,47.499920 
	C910.270752,58.205627 923.586975,81.356880 921.758728,106.175079 
	C919.893372,131.497009 899.263123,154.708282 874.652405,159.174774 
	C847.013611,164.190796 820.950439,151.128983 809.341614,126.956703 
	C798.945007,105.308746 802.383606,76.976723 821.499268,58.501076 
M846.448364,47.736450 
	C817.956421,56.201294 800.547668,87.287720 808.713074,115.119514 
	C818.202637,147.464645 848.084839,163.882523 880.745972,153.633255 
	C907.498108,145.238205 924.123962,116.700066 916.809509,88.455620 
	C908.454590,56.193089 877.581238,38.631199 846.448364,47.736450 
z"/>
<path fill="#AEAFB2" opacity="1.000000" stroke="none" 
	d="
M118.938416,665.642883 
	C121.963425,654.335205 129.209717,646.802246 140.516144,643.162048 
	C140.981354,643.853149 141.052902,644.138306 141.124481,644.423523 
	C139.172775,645.636292 137.356812,647.217163 135.245041,647.995789 
	C127.512283,650.847107 124.855141,657.587646 121.610550,664.757874 
	C123.715813,664.872864 125.297379,665.034729 126.878960,665.034912 
	C322.654755,665.053711 518.430542,665.060852 714.206360,665.065125 
	C716.205139,665.065186 718.203857,665.019653 720.663574,665.127258 
	C719.005981,665.761047 716.888489,666.696350 714.768982,666.700867 
	C672.631348,666.790955 630.493408,666.777039 588.355591,666.777039 
	C434.460907,666.777039 280.566193,666.778870 126.671509,666.732727 
	C124.235367,666.731995 121.799408,666.129150 118.938416,665.642883 
z"/>
<path fill="#17242D" opacity="1.000000" stroke="none" 
	d="
M718.556641,216.040161 
	C716.991272,216.458252 715.060547,216.947510 713.129639,216.947845 
	C514.821045,216.982239 316.512451,216.980530 118.203857,216.968109 
	C116.382355,216.968002 114.560860,216.794846 112.416641,216.458191 
	C114.402672,216.058578 116.711418,215.767548 119.020187,215.767303 
	C317.079651,215.745621 515.139160,215.746048 713.198608,215.751282 
	C714.862793,215.751328 716.526978,215.837250 718.556641,216.040161 
z"/>
<path fill="#070707" opacity="1.000000" stroke="none" 
	d="
M647.636597,733.353088 
	C654.697388,741.299988 654.811707,751.157898 648.183533,757.834778 
	C641.631714,764.434509 631.075562,764.709656 624.233521,758.458679 
	C617.578613,752.378845 616.802368,741.973755 622.480347,734.958679 
	C628.652649,727.332825 639.002136,726.562805 647.636597,733.353088 
z"/>
<path fill="#AAADB0" opacity="1.000000" stroke="none" 
	d="
M92.016006,549.999146 
	C84.382248,564.069275 76.748497,578.139343 68.789574,592.313843 
	C68.278084,590.529907 68.091759,588.641663 68.030884,586.295166 
	C69.286201,584.923828 70.830925,584.239990 71.481552,583.062134 
	C77.735817,571.739990 83.839355,560.334534 90.438614,549.012085 
	C91.266113,549.380554 91.641068,549.689819 92.016006,549.999146 
z"/>
<path fill="#AAADB0" opacity="1.000000" stroke="none" 
	d="
M80.367836,230.857635 
	C78.319267,234.706787 75.496239,238.382095 73.665054,242.498611 
	C71.622147,247.091080 70.480400,252.084442 68.656555,257.116180 
	C68.511497,246.861450 72.653809,238.156693 80.367836,230.857635 
z"/>
<path fill="#AEAFB2" opacity="1.000000" stroke="none" 
	d="
M724.259644,665.252075 
	C731.468750,661.419189 738.934204,657.799316 746.748718,654.173462 
	C744.090332,656.557556 741.377197,659.560120 738.000793,661.182373 
	C733.791687,663.204834 729.035828,664.089294 724.259644,665.252075 
z"/>
<path fill="#17242D" opacity="1.000000" stroke="none" 
	d="
M746.061523,226.622772 
	C738.532104,223.633453 730.882629,220.331024 723.124634,216.699249 
	C731.743896,217.178253 739.229431,220.851898 746.061523,226.622772 
z"/>
<path fill="#17242D" opacity="1.000000" stroke="none" 
	d="
M762.186279,253.618866 
	C761.139709,251.788498 760.285034,249.542801 759.185242,247.424332 
	C756.559387,242.366379 753.817932,237.368423 751.123901,231.969086 
	C757.287720,237.555801 760.658264,244.955551 762.186279,253.618866 
z"/>
<path fill="#AAADB0" opacity="1.000000" stroke="none" 
	d="
M101.071991,217.444061 
	C96.514000,220.375595 91.587677,223.161911 86.308258,225.940002 
	C90.871330,223.054138 95.787498,220.176483 101.071991,217.444061 
z"/>
<path fill="#AEAFB2" opacity="1.000000" stroke="none" 
	d="
M757.329346,642.233582 
	C756.891235,642.089050 756.768921,641.892578 756.513062,641.342163 
	C756.379578,640.988220 756.422180,640.944336 756.422180,640.944336 
	C757.237671,639.904175 758.053162,638.863953 759.167175,637.685425 
	C758.858887,639.091919 758.252014,640.636719 757.329346,642.233582 
z"/>
<path fill="#17242D" opacity="1.000000" stroke="none" 
	d="
M763.171997,260.720184 
	C762.775146,259.590454 762.501709,258.164917 762.404419,256.460175 
	C762.818787,257.595459 763.057129,259.009918 763.171997,260.720184 
z"/>
<path fill="#AAADB0" opacity="1.000000" stroke="none" 
	d="
M66.951889,593.174500 
	C66.047020,594.094360 64.799179,594.931519 63.218758,595.752380 
	C64.127090,594.854675 65.368004,593.973267 66.951889,593.174500 
z"/>
<path fill="#AEAFB2" opacity="1.000000" stroke="none" 
	d="
M753.379761,648.002136 
	C753.659668,646.935181 754.296936,645.855286 755.245117,644.678467 
	C754.949768,645.717468 754.343445,646.853333 753.379761,648.002136 
z"/>
<path fill="#AEAFB2" opacity="1.000000" stroke="none" 
	d="
M762.678223,628.095825 
	C762.438171,627.263062 762.486511,626.355225 762.806152,625.226807 
	C763.040588,626.011047 763.003601,627.015930 762.678223,628.095825 
z"/>
<path fill="#AEAFB2" opacity="1.000000" stroke="none" 
	d="
M763.198364,496.722046 
	C763.842773,496.673920 764.498047,496.939728 765.200806,497.493958 
	C764.869446,497.903687 764.490662,498.024933 763.815186,498.178040 
	C763.415344,497.818604 763.312256,497.427307 763.198364,496.722046 
z"/>
<path fill="#2B3A44" opacity="1.000000" stroke="none" 
	d="
M877.429077,482.230286 
	C877.375732,481.663605 877.554871,480.930176 878.009399,480.075806 
	C878.077026,480.657776 877.869324,481.360626 877.429077,482.230286 
z"/>
<path fill="#AEAFB2" opacity="1.000000" stroke="none" 
	d="
M761.684937,632.140015 
	C761.481628,631.596985 761.535400,631.009644 761.825928,630.213257 
	C762.022400,630.701416 761.982178,631.398560 761.684937,632.140015 
z"/>
<path fill="#AAADB0" opacity="1.000000" stroke="none" 
	d="
M105.094681,216.407104 
	C104.730293,216.893814 104.036125,217.237503 103.164902,217.400116 
	C103.580185,216.900696 104.172539,216.582382 105.094681,216.407104 
z"/>
<path fill="#5DB6E6" opacity="1.000000" stroke="none" 
	d="
M475.000000,279.033844 
	C349.196899,279.032288 223.893829,279.031281 98.590736,279.027740 
	C90.698792,279.027496 90.603340,279.016663 90.729736,271.257111 
	C90.839851,264.496552 90.004730,257.711029 93.562187,251.258362 
	C98.316078,242.635574 105.672897,238.704376 115.024498,238.030289 
	C120.163513,237.659866 125.350586,237.952148 130.515991,237.952301 
	C324.469208,237.957733 518.422485,238.041733 712.375488,237.838455 
	C729.966736,237.820023 739.586426,248.244675 740.857788,259.951080 
	C741.412781,265.060730 741.299622,270.285431 740.948730,275.420898 
	C740.862000,276.690155 738.852966,278.319366 737.384888,278.870911 
	C735.775879,279.475433 733.770203,279.032104 731.937378,279.032135 
	C646.458252,279.033600 560.979126,279.033600 475.000000,279.033844 
z"/>
<path fill="#353D46" opacity="1.000000" stroke="none" 
	d="
M389.000000,301.989014 
	C504.494781,301.989136 619.489563,301.988861 734.484314,301.990173 
	C741.000732,301.990265 741.000671,301.996185 741.002502,308.439728 
	C741.006042,321.115173 741.006531,321.122833 728.231262,321.973175 
	C726.903625,322.061554 725.565430,321.993530 724.232178,321.993530 
	C519.408142,321.993927 314.584137,322.001312 109.760124,321.952484 
	C104.467644,321.951202 99.157089,321.489838 93.898094,320.874451 
	C92.832161,320.749725 91.212715,319.015106 91.132011,317.927460 
	C90.812241,313.618134 90.810455,309.256348 91.140404,304.948456 
	C91.220863,303.897949 92.856194,302.622955 94.058578,302.101959 
	C95.182251,301.615082 96.680260,301.989380 98.013519,301.989349 
	C194.842346,301.988922 291.671173,301.988983 389.000000,301.989014 
z"/>
<path fill="#5C9FBF" opacity="1.000000" stroke="none" 
	d="
M91.063309,545.053894 
	C90.750130,543.323853 90.164612,541.594055 90.163132,539.863708 
	C90.108780,476.536743 90.161346,413.209564 89.999969,349.882904 
	C89.987198,344.870941 91.788368,343.767822 96.389603,343.778076 
	C149.050766,343.895386 201.712311,343.838440 254.373749,343.838379 
	C413.858032,343.838165 573.342285,343.838013 732.826599,343.856537 
	C742.341248,343.857666 741.720703,342.933014 741.719116,352.757904 
	C741.704773,440.249237 741.704407,527.740601 741.707947,615.231934 
	C741.708191,621.329468 740.909241,627.183533 736.524414,631.891113 
	C737.371094,626.741028 738.625671,621.849548 739.904785,616.593323 
	C739.911072,615.497253 739.892761,614.765991 739.911560,613.563660 
	C739.608582,525.389526 739.268494,437.686462 738.933716,349.589539 
	C737.182678,348.124146 735.482056,346.256317 733.659363,346.128510 
	C727.912659,345.725647 722.120300,345.972900 716.345581,345.972839 
	C516.520813,345.970947 316.696045,345.969482 116.871269,345.968719 
	C110.430946,345.968689 103.990211,345.936005 97.550499,346.000946 
	C94.848190,346.028198 91.945824,345.992249 92.028992,350.455444 
	C92.010864,378.734283 92.004440,406.543152 92.002899,434.352020 
	C92.001053,467.822601 91.971344,501.293274 92.094002,534.763428 
	C92.100449,536.523010 93.414909,538.277771 94.057594,540.370850 
	C93.017609,542.155884 92.040459,543.604858 91.063309,545.053894 
z"/>
<path fill="#5C9FBF" opacity="1.000000" stroke="none" 
	d="
M735.247314,634.126343 
	C730.271729,641.153992 722.963379,643.419617 714.901184,643.663574 
	C706.578918,643.915527 698.243469,643.732117 689.913757,643.732178 
	C511.823669,643.733521 333.733612,643.735413 155.643524,643.721375 
	C152.652969,643.721130 149.662399,643.525391 146.415192,642.972107 
	C147.761047,641.700745 149.363541,640.878174 151.271271,640.343018 
	C153.554047,640.763062 155.531570,641.011719 157.509109,641.011841 
	C341.362701,641.026855 525.216370,640.966980 709.069702,641.187378 
	C718.116699,641.198242 725.948975,639.500244 733.381592,634.019531 
	C734.252686,634.055237 734.750000,634.090759 735.247314,634.126343 
z"/>
<path fill="#B1CEDB" opacity="1.000000" stroke="none" 
	d="
M150.966034,640.055542 
	C149.363541,640.878174 147.761047,641.700745 145.988708,642.747681 
	C144.521713,643.400757 143.224564,643.829468 141.525940,644.340820 
	C141.052902,644.138306 140.981354,643.853149 140.883698,643.127686 
	C153.275681,635.713318 165.693787,628.739136 178.844971,621.353271 
	C169.785507,616.403931 161.260849,611.740845 152.730392,607.088440 
	C147.339844,604.148621 142.133209,600.764893 136.498749,598.404785 
	C128.637970,595.112183 124.027519,589.303650 120.296188,581.931458 
	C113.854156,569.203674 106.760101,556.805664 99.920692,544.279663 
	C99.301666,543.145935 98.544960,542.087402 97.557701,540.529114 
	C95.699921,543.804382 94.085716,546.650208 92.243767,549.747559 
	C91.641068,549.689819 91.266113,549.380554 90.676407,548.766602 
	C90.603142,547.549072 90.744644,546.636108 90.974731,545.388550 
	C92.040459,543.604858 93.017609,542.155884 94.328979,540.227783 
	C95.127975,538.871277 95.592766,537.993958 96.426033,537.080688 
	C98.224770,538.428833 100.093353,539.569580 101.016907,541.234558 
	C109.388023,556.326538 117.532539,571.544250 125.915749,586.629395 
	C127.146805,588.844666 128.919281,591.206604 131.055984,592.399536 
	C146.704407,601.136230 162.527069,609.560364 178.236267,618.189575 
	C179.675491,618.980103 180.705170,620.516235 181.925049,621.706116 
	C180.715973,622.744812 179.637039,624.012817 178.276749,624.785156 
	C169.206711,629.934387 160.076630,634.977783 150.966034,640.055542 
z"/>
<path fill="#63B0D9" opacity="1.000000" stroke="none" 
	d="
M735.468140,633.989502 
	C734.750000,634.090759 734.252686,634.055237 733.378601,633.627075 
	C734.844910,627.989746 736.670776,622.738708 738.574951,617.516235 
	C738.685852,617.211975 739.430481,617.138794 739.880127,616.958130 
	C738.625671,621.849548 737.371094,626.741028 736.206787,632.047119 
	C736.094360,632.925415 735.891663,633.388977 735.468140,633.989502 
z"/>
<path fill="#17242D" opacity="1.000000" stroke="none" 
	d="
M756.251587,640.550659 
	C756.422180,640.944336 756.379578,640.988220 756.402588,641.013123 
	C754.674683,640.657349 752.923767,640.276672 751.172913,639.895996 
	C751.417603,639.245972 751.662292,638.595947 751.906982,637.945984 
	C753.298340,638.682983 754.689697,639.420044 756.251587,640.550659 
z"/>
<path fill="#FAFAFA" opacity="1.000000" stroke="none" 
	d="
M690.977905,110.034210 
	C685.659424,106.003555 680.398865,102.449821 675.663208,98.297562 
	C668.891663,92.360130 666.131531,84.724342 668.282166,75.796234 
	C671.434814,62.708019 686.919006,56.754780 698.466858,67.943054 
	C707.829224,57.280251 718.367981,55.898792 726.753845,64.235085 
	C732.495544,69.942810 734.978027,80.278824 729.985107,87.812073 
	C723.154419,98.118073 714.604431,107.304825 706.480530,116.702591 
	C705.653381,117.659454 702.367493,117.422066 700.800110,116.615952 
	C697.424072,114.879677 694.424194,112.412094 690.977905,110.034210 
z"/>
<path fill="#5CB5E5" opacity="1.000000" stroke="none" 
	d="
M875.880005,478.976868 
	C866.037598,499.820282 849.948486,512.786682 827.228271,517.100830 
	C796.667603,522.903809 765.333740,503.769867 756.116272,473.874817 
	C743.396301,432.620544 773.908691,390.752136 817.076965,390.890717 
	C861.943665,391.034729 888.277954,433.494720 878.932190,467.586487 
	C878.108215,470.592285 877.434448,473.639282 876.419250,477.243958 
	C876.058350,478.206116 875.969177,478.591492 875.880005,478.976868 
M825.459900,492.968109 
	C832.958374,479.655304 840.655212,466.448853 847.872070,452.985138 
	C851.517151,446.185059 850.992676,438.770264 848.529419,431.623138 
	C842.398254,413.833435 823.487244,404.739380 805.779236,410.553253 
	C788.465332,416.237701 779.018494,436.971130 785.223328,452.915802 
	C792.326843,471.169830 801.316956,488.337708 811.408325,505.016510 
	C812.056702,506.088196 813.069519,506.939392 814.518555,508.578308 
	C818.251038,503.257233 821.651428,498.409698 825.459900,492.968109 
z"/>
<path fill="#2B3A44" opacity="1.000000" stroke="none" 
	d="
M876.133728,478.792664 
	C875.969177,478.591492 876.058350,478.206116 876.370239,477.615906 
	C876.524353,477.810181 876.455872,478.209320 876.133728,478.792664 
z"/>
<path fill="#5CB6E5" opacity="1.000000" stroke="none" 
	d="
M846.839661,47.615543 
	C877.581238,38.631199 908.454590,56.193089 916.809509,88.455620 
	C924.123962,116.700066 907.498108,145.238205 880.745972,153.633255 
	C848.084839,163.882523 818.202637,147.464645 808.713074,115.119514 
	C800.547668,87.287720 817.956421,56.201294 846.839661,47.615543 
M864.932861,108.561539 
	C860.176514,106.606712 855.420166,104.651878 850.663818,102.697052 
	C850.742188,102.129669 850.820496,101.562294 850.898804,100.994911 
	C856.130371,98.550476 861.414612,96.210808 866.571350,93.617607 
	C869.168274,92.311676 871.114929,92.149940 873.801331,93.938652 
	C878.374573,96.983696 884.665833,94.584946 887.253235,89.426437 
	C889.703491,84.541344 887.328674,78.236328 882.206360,76.027489 
	C877.086365,73.819649 870.073669,76.252365 869.174316,81.450249 
	C868.326782,86.348854 865.309387,87.940552 861.580750,89.532387 
	C858.828369,90.707413 856.075378,91.920265 853.458618,93.362862 
	C850.660583,94.905434 848.297668,95.443901 845.176270,93.552177 
	C841.259705,91.178642 835.639587,92.693359 832.978882,96.022865 
	C830.458252,99.176903 830.300476,104.878105 832.640625,108.237183 
	C835.124268,111.802238 840.740601,113.917496 844.620972,111.431541 
	C848.920715,108.676956 852.329041,109.909843 856.176392,111.552338 
	C858.774536,112.661537 861.422913,113.666649 864.093811,114.587906 
	C866.548584,115.434608 868.248230,116.420044 868.762634,119.523514 
	C869.486572,123.891838 872.787415,126.299461 877.172424,126.831848 
	C881.374756,127.342056 884.681519,125.721153 886.817139,122.010658 
	C889.062256,118.110092 888.639343,114.366333 885.933594,110.837723 
	C882.166443,105.925110 876.805847,105.850388 870.227478,110.650543 
	C868.716003,110.064743 867.166931,109.464378 864.932861,108.561539 
z"/>
<path fill="#5DB8E9" opacity="1.000000" stroke="none" 
	d="
M739.904785,616.593384 
	C739.430481,617.138794 738.685852,617.211975 738.574951,617.516235 
	C736.670776,622.738708 734.844910,627.989746 733.004883,633.627014 
	C725.948975,639.500244 718.116699,641.198242 709.069702,641.187378 
	C525.216370,640.966980 341.362701,641.026855 157.509109,641.011841 
	C155.531570,641.011719 153.554047,640.763062 151.271271,640.343018 
	C160.076630,634.977783 169.206711,629.934387 178.276749,624.785156 
	C179.637039,624.012817 180.715973,622.744812 181.925049,621.706116 
	C180.705170,620.516235 179.675491,618.980103 178.236267,618.189575 
	C162.527069,609.560364 146.704407,601.136230 131.055984,592.399536 
	C128.919281,591.206604 127.146805,588.844666 125.915749,586.629395 
	C117.532539,571.544250 109.388023,556.326538 101.016907,541.234558 
	C100.093353,539.569580 98.224770,538.428833 96.272430,536.732910 
	C95.500328,532.755371 95.035576,529.089966 95.032501,525.424133 
	C94.986214,470.343018 94.996384,415.261871 95.018448,360.180756 
	C95.019241,358.201447 94.947380,356.125854 95.489494,354.264069 
	C96.468987,350.900208 94.923538,350.013000 92.042847,349.985504 
	C91.945824,345.992249 94.848190,346.028198 97.550499,346.000946 
	C103.990211,345.936005 110.430946,345.968689 116.871269,345.968719 
	C316.696045,345.969482 516.520813,345.970947 716.345581,345.972839 
	C722.120300,345.972900 727.912659,345.725647 733.659363,346.128510 
	C735.482056,346.256317 737.182678,348.124146 738.549561,349.653564 
	C737.440735,352.274750 736.095520,354.437286 736.092773,356.601532 
	C735.986084,439.477356 736.001099,522.353333 736.012146,605.229309 
	C736.012390,606.885925 735.716919,608.741882 736.352905,610.145203 
	C737.040405,611.662109 738.660889,612.756165 739.874451,614.034668 
	C739.892761,614.765991 739.911072,615.497253 739.904785,616.593384 
M351.500031,383.378723 
	C280.340149,383.381653 209.180252,383.384460 138.020370,383.388306 
	C136.687225,383.388397 135.347946,383.319916 134.021942,383.420563 
	C126.583405,383.985107 122.091980,388.606506 122.074448,396.045868 
	C122.015526,421.043243 122.009216,446.041046 122.089134,471.038330 
	C122.112900,478.471863 126.422218,482.724945 133.810715,483.052155 
	C135.308167,483.118530 136.809753,483.105591 138.309433,483.105621 
	C214.302292,483.105804 290.295166,483.104004 366.288025,483.099854 
	C370.620728,483.099640 374.957489,483.193024 379.285278,483.040863 
	C386.697662,482.780243 390.954681,478.494507 390.981720,470.987579 
	C391.070648,446.323700 391.090881,421.659119 391.007568,396.995239 
	C390.976501,387.807678 386.642212,383.538330 377.497345,383.413910 
	C369.166321,383.300537 360.832581,383.383057 351.500031,383.378723 
M694.498047,387.950226 
	C690.073608,386.696259 685.661987,384.413147 681.222534,384.357697 
	C655.243469,384.033112 629.257141,384.115631 603.274902,384.299713 
	C590.673401,384.388977 579.620483,393.874847 579.028748,406.349548 
	C578.201660,423.786133 578.077576,441.309418 578.791199,458.749023 
	C579.371887,472.940521 589.866821,482.386108 604.071472,482.542633 
	C629.885620,482.827087 655.705933,482.839691 681.520935,482.627411 
	C695.676086,482.511017 706.565125,471.669281 706.830200,457.579559 
	C707.130859,441.595734 707.022400,425.601776 706.909302,409.613525 
	C706.844666,400.473633 702.833496,393.317383 694.498047,387.950226 
z"/>
<path fill="#61B3DF" opacity="1.000000" stroke="none" 
	d="
M739.911560,613.563660 
	C738.660889,612.756165 737.040405,611.662109 736.352905,610.145203 
	C735.716919,608.741882 736.012390,606.885925 736.012146,605.229309 
	C736.001099,522.353333 735.986084,439.477356 736.092773,356.601532 
	C736.095520,354.437286 737.440735,352.274750 738.544128,350.047394 
	C739.268494,437.686462 739.608582,525.389526 739.911560,613.563660 
z"/>
<path fill="#62B5DC" opacity="1.000000" stroke="none" 
	d="
M92.028992,350.455444 
	C94.923538,350.013000 96.468987,350.900208 95.489494,354.264069 
	C94.947380,356.125854 95.019241,358.201447 95.018448,360.180756 
	C94.996384,415.261871 94.986214,470.343018 95.032501,525.424133 
	C95.035576,529.089966 95.500328,532.755371 95.903946,536.768799 
	C95.592766,537.993958 95.127975,538.871277 94.391815,539.891724 
	C93.414909,538.277771 92.100449,536.523010 92.094002,534.763428 
	C91.971344,501.293274 92.001053,467.822601 92.002899,434.352020 
	C92.004440,406.543152 92.010864,378.734283 92.028992,350.455444 
z"/>
<path fill="#020508" opacity="1.000000" stroke="none" 
	d="
M825.255859,493.265137 
	C821.651428,498.409698 818.251038,503.257233 814.518555,508.578308 
	C813.069519,506.939392 812.056702,506.088196 811.408325,505.016510 
	C801.316956,488.337708 792.326843,471.169830 785.223328,452.915802 
	C779.018494,436.971130 788.465332,416.237701 805.779236,410.553253 
	C823.487244,404.739380 842.398254,413.833435 848.529419,431.623138 
	C850.992676,438.770264 851.517151,446.185059 847.872070,452.985138 
	C840.655212,466.448853 832.958374,479.655304 825.255859,493.265137 
M813.354126,457.379395 
	C822.827881,458.727081 830.479736,453.619171 831.844543,445.036316 
	C833.154175,436.800201 828.079285,429.303528 819.950684,427.466766 
	C812.197144,425.714752 804.212891,430.408264 801.974915,438.033752 
	C799.552063,446.289429 803.755737,453.899811 813.354126,457.379395 
z"/>
<path fill="#040B11" opacity="1.000000" stroke="none" 
	d="
M865.275391,108.712776 
	C867.166931,109.464378 868.716003,110.064743 870.227478,110.650543 
	C876.805847,105.850388 882.166443,105.925110 885.933594,110.837723 
	C888.639343,114.366333 889.062256,118.110092 886.817139,122.010658 
	C884.681519,125.721153 881.374756,127.342056 877.172424,126.831848 
	C872.787415,126.299461 869.486572,123.891838 868.762634,119.523514 
	C868.248230,116.420044 866.548584,115.434608 864.093811,114.587906 
	C861.422913,113.666649 858.774536,112.661537 856.176392,111.552338 
	C852.329041,109.909843 848.920715,108.676956 844.620972,111.431541 
	C840.740601,113.917496 835.124268,111.802238 832.640625,108.237183 
	C830.300476,104.878105 830.458252,99.176903 832.978882,96.022865 
	C835.639587,92.693359 841.259705,91.178642 845.176270,93.552177 
	C848.297668,95.443901 850.660583,94.905434 853.458618,93.362862 
	C856.075378,91.920265 858.828369,90.707413 861.580750,89.532387 
	C865.309387,87.940552 868.326782,86.348854 869.174316,81.450249 
	C870.073669,76.252365 877.086365,73.819649 882.206360,76.027489 
	C887.328674,78.236328 889.703491,84.541344 887.253235,89.426437 
	C884.665833,94.584946 878.374573,96.983696 873.801331,93.938652 
	C871.114929,92.149940 869.168274,92.311676 866.571350,93.617607 
	C861.414612,96.210808 856.130371,98.550476 850.898804,100.994911 
	C850.820496,101.562294 850.742188,102.129669 850.663818,102.697052 
	C855.420166,104.651878 860.176514,106.606712 865.275391,108.712776 
z"/>
<path fill="#212A31" opacity="1.000000" stroke="none" 
	d="
M352.000061,383.378967 
	C360.832581,383.383057 369.166321,383.300537 377.497345,383.413910 
	C386.642212,383.538330 390.976501,387.807678 391.007568,396.995239 
	C391.090881,421.659119 391.070648,446.323700 390.981720,470.987579 
	C390.954681,478.494507 386.697662,482.780243 379.285278,483.040863 
	C374.957489,483.193024 370.620728,483.099640 366.288025,483.099854 
	C290.295166,483.104004 214.302292,483.105804 138.309433,483.105621 
	C136.809753,483.105591 135.308167,483.118530 133.810715,483.052155 
	C126.422218,482.724945 122.112900,478.471863 122.089134,471.038330 
	C122.009216,446.041046 122.015526,421.043243 122.074448,396.045868 
	C122.091980,388.606506 126.583405,383.985107 134.021942,383.420563 
	C135.347946,383.319916 136.687225,383.388397 138.020370,383.388306 
	C209.180252,383.384460 280.340149,383.381653 352.000061,383.378967 
M229.500000,406.045044 
	C202.843582,406.043182 176.186630,406.123199 149.531265,405.954224 
	C145.367493,405.927856 144.107834,407.179932 144.169662,411.325348 
	C144.390732,426.149719 144.248184,440.979340 144.284317,455.806885 
	C144.288208,457.399445 144.560913,458.991333 144.709167,460.586212 
	C146.074921,460.714569 146.897263,460.859436 147.719620,460.859589 
	C219.858505,460.872406 291.997437,460.848694 364.136200,460.945282 
	C368.077911,460.950562 368.833435,459.329742 368.801270,455.860931 
	C368.666748,441.367767 368.518433,426.867126 368.868958,412.381165 
	C368.992462,407.276978 367.501556,405.925751 362.448761,405.947174 
	C318.466492,406.133575 274.483063,406.049072 229.500000,406.045044 
z"/>
<path fill="#232A2F" opacity="1.000000" stroke="none" 
	d="
M694.824524,388.115204 
	C702.833496,393.317383 706.844666,400.473633 706.909302,409.613525 
	C707.022400,425.601776 707.130859,441.595734 706.830200,457.579559 
	C706.565125,471.669281 695.676086,482.511017 681.520935,482.627411 
	C655.705933,482.839691 629.885620,482.827087 604.071472,482.542633 
	C589.866821,482.386108 579.371887,472.940521 578.791199,458.749023 
	C578.077576,441.309418 578.201660,423.786133 579.028748,406.349548 
	C579.620483,393.874847 590.673401,384.388977 603.274902,384.299713 
	C629.257141,384.115631 655.243469,384.033112 681.222534,384.357697 
	C685.661987,384.413147 690.073608,386.696259 694.824524,388.115204 
M609.349426,406.687347 
	C606.758789,407.332367 604.168152,407.977386 600.962524,409.094055 
	C600.809753,424.705811 600.607910,440.317566 600.609436,455.929321 
	C600.609558,457.023743 602.113831,458.118042 603.552856,459.775726 
	C609.365967,459.763489 615.179016,459.751251 621.862732,460.004303 
	C624.841125,459.877350 627.819519,459.750427 631.630066,459.942993 
	C632.497620,459.821259 633.365112,459.699524 635.039490,459.814270 
	C637.273987,459.734802 639.508484,459.655304 642.560364,459.866272 
	C643.121643,459.768494 643.682983,459.670715 645.031250,459.807617 
	C646.941345,459.738159 648.851379,459.668701 651.606934,459.922455 
	C652.794373,459.833405 653.981873,459.744354 656.052551,459.897797 
	C663.881653,459.956573 671.711548,459.966675 679.539490,460.097748 
	C682.732788,460.151215 684.720215,459.040924 684.720764,455.589844 
	C684.723022,440.594727 684.792297,425.598114 684.534607,410.607239 
	C684.513367,409.372040 682.237366,407.137817 680.984924,407.120575 
	C667.020813,406.928040 653.051941,407.080780 638.225098,406.865356 
	C636.136353,406.947540 634.047607,407.029694 631.187561,406.842407 
	C624.785889,406.879364 618.384155,406.916321 611.328491,406.775604 
	C610.884460,406.834839 610.440430,406.894104 609.349426,406.687347 
z"/>
<path fill="#5CB3E1" opacity="1.000000" stroke="none" 
	d="
M812.963745,457.300232 
	C803.755737,453.899811 799.552063,446.289429 801.974915,438.033752 
	C804.212891,430.408264 812.197144,425.714752 819.950684,427.466766 
	C828.079285,429.303528 833.154175,436.800201 831.844543,445.036316 
	C830.479736,453.619171 822.827881,458.727081 812.963745,457.300232 
z"/>
<path fill="#A4D5E4" opacity="1.000000" stroke="none" 
	d="
M230.000000,406.045074 
	C274.483063,406.049072 318.466492,406.133575 362.448761,405.947174 
	C367.501556,405.925751 368.992462,407.276978 368.868958,412.381165 
	C368.518433,426.867126 368.666748,441.367767 368.801270,455.860931 
	C368.833435,459.329742 368.077911,460.950562 364.136200,460.945282 
	C291.997437,460.848694 219.858505,460.872406 147.719620,460.859589 
	C146.897263,460.859436 146.074921,460.714569 144.709167,460.586212 
	C144.560913,458.991333 144.288208,457.399445 144.284317,455.806885 
	C144.248184,440.979340 144.390732,426.149719 144.169662,411.325348 
	C144.107834,407.179932 145.367493,405.927856 149.531265,405.954224 
	C176.186630,406.123199 202.843582,406.043182 230.000000,406.045074 
z"/>
<path fill="#D9AB5B" opacity="1.000000" stroke="none" 
	d="
M631.958862,407.111847 
	C634.047607,407.029694 636.136353,406.947540 638.971191,407.251526 
	C643.369934,407.740967 647.028015,407.752777 650.674194,407.967285 
	C657.514465,408.369690 664.014954,409.981537 669.780334,413.879944 
	C683.867371,423.405334 686.998718,438.800323 672.999573,450.216705 
	C667.889160,454.384308 661.160034,456.567078 655.169312,459.655334 
	C653.981873,459.744354 652.794373,459.833405 650.892822,459.606995 
	C648.200623,459.385315 646.222412,459.479095 644.244263,459.572906 
	C643.682983,459.670715 643.121643,459.768494 641.845276,459.570801 
	C638.830994,459.376160 636.531860,459.476959 634.232666,459.577759 
	C633.365112,459.699524 632.497620,459.821259 630.932861,459.615509 
	C627.164856,458.515198 624.093933,457.742340 620.815308,456.700745 
	C612.846680,452.741241 607.048279,447.181793 604.007629,438.539856 
	C604.338318,433.723938 604.667908,429.365601 605.264038,424.789368 
	C608.002930,421.397186 610.410706,418.169342 612.976074,415.072113 
	C614.179504,413.619293 615.686646,412.418030 617.449463,411.081238 
	C620.224182,410.368683 622.605774,409.677673 625.388733,408.988556 
	C627.846375,408.364258 629.902649,407.738037 631.958862,407.111847 
z"/>
<path fill="#E8CB7F" opacity="1.000000" stroke="none" 
	d="
M655.610962,459.776550 
	C661.160034,456.567078 667.889160,454.384308 672.999573,450.216705 
	C686.998718,438.800323 683.867371,423.405334 669.780334,413.879944 
	C664.014954,409.981537 657.514465,408.369690 650.674194,407.967285 
	C647.028015,407.752777 643.369934,407.740967 639.400757,407.389038 
	C653.051941,407.080780 667.020813,406.928040 680.984924,407.120575 
	C682.237366,407.137817 684.513367,409.372040 684.534607,410.607239 
	C684.792297,425.598114 684.723022,440.594727 684.720764,455.589844 
	C684.720215,459.040924 682.732788,460.151215 679.539490,460.097748 
	C671.711548,459.966675 663.881653,459.956573 655.610962,459.776550 
z"/>
<path fill="#EDD082" opacity="1.000000" stroke="none" 
	d="
M604.006592,438.997406 
	C607.048279,447.181793 612.846680,452.741241 620.807007,457.047638 
	C621.001648,458.355164 620.996887,459.047089 620.992126,459.738983 
	C615.179016,459.751251 609.365967,459.763489 603.221436,459.061035 
	C602.617554,452.503357 602.287537,446.661621 602.161011,440.815491 
	C602.148254,440.223083 603.362061,439.604095 604.006592,438.997406 
z"/>
<path fill="#E8CB7F" opacity="1.000000" stroke="none" 
	d="
M604.007629,438.539856 
	C603.362061,439.604095 602.148254,440.223083 602.161011,440.815491 
	C602.287537,446.661621 602.617554,452.503357 602.904297,458.779358 
	C602.113831,458.118042 600.609558,457.023743 600.609436,455.929321 
	C600.607910,440.317566 600.809753,424.705811 601.414795,408.991150 
	C601.867004,408.888275 602.152283,409.158691 602.107056,409.599854 
	C602.053528,412.501465 601.658264,415.040924 602.140137,417.401215 
	C602.675232,420.021790 604.010681,422.478912 604.997559,425.007233 
	C604.667908,429.365601 604.338318,433.723938 604.007629,438.539856 
z"/>
<path fill="#E8CB7F" opacity="1.000000" stroke="none" 
	d="
M631.573242,406.977112 
	C629.902649,407.738037 627.846375,408.364258 625.144531,408.714233 
	C621.999268,408.627380 619.499634,408.816742 616.636719,408.965759 
	C614.859436,408.624786 613.445496,408.324158 612.018188,407.755981 
	C611.997375,407.310089 611.989929,407.131683 611.982483,406.953308 
	C618.384155,406.916321 624.785889,406.879364 631.573242,406.977112 
z"/>
<path fill="#E8CB7F" opacity="1.000000" stroke="none" 
	d="
M601.722290,408.755371 
	C604.168152,407.977386 606.758789,407.332367 609.673889,407.161377 
	C609.998779,408.089844 609.999146,408.544281 609.745728,409.275208 
	C607.045349,409.420685 604.598816,409.289703 602.152283,409.158691 
	C602.152283,409.158691 601.867004,408.888275 601.722290,408.755371 
z"/>
<path fill="#E8CB7F" opacity="1.000000" stroke="none" 
	d="
M621.427429,459.871643 
	C620.996887,459.047089 621.001648,458.355164 621.014771,457.316406 
	C624.093933,457.742340 627.164856,458.515198 630.516846,459.455750 
	C627.819519,459.750427 624.841125,459.877350 621.427429,459.871643 
z"/>
<path fill="#E8CB7F" opacity="1.000000" stroke="none" 
	d="
M634.636108,459.695984 
	C636.531860,459.476959 638.830994,459.376160 641.436584,459.425598 
	C639.508484,459.655304 637.273987,459.734802 634.636108,459.695984 
z"/>
<path fill="#E8CB7F" opacity="1.000000" stroke="none" 
	d="
M644.637756,459.690247 
	C646.222412,459.479095 648.200623,459.385315 650.470093,459.445374 
	C648.851379,459.668701 646.941345,459.738159 644.637756,459.690247 
z"/>
<path fill="#EDD082" opacity="1.000000" stroke="none" 
	d="
M609.999573,408.998779 
	C609.999146,408.544281 609.998779,408.089844 609.997375,407.294373 
	C610.440430,406.894104 610.884460,406.834839 611.655518,406.864441 
	C611.989929,407.131683 611.997375,407.310089 611.840393,407.994904 
	C611.117126,408.667114 610.558350,408.832947 609.999573,408.998779 
z"/>
<path fill="#F7D47E" opacity="1.000000" stroke="none" 
	d="
M609.745728,409.275208 
	C610.558350,408.832947 611.117126,408.667114 611.853760,408.262390 
	C613.445496,408.324158 614.859436,408.624786 616.639038,409.314636 
	C617.021851,410.170166 617.039001,410.636475 617.056152,411.102783 
	C615.686646,412.418030 614.179504,413.619293 612.976074,415.072113 
	C610.410706,418.169342 608.002930,421.397186 605.264160,424.789368 
	C604.010681,422.478912 602.675232,420.021790 602.140137,417.401215 
	C601.658264,415.040924 602.053528,412.501465 602.107056,409.599854 
	C604.598816,409.289703 607.045349,409.420685 609.745728,409.275208 
z"/>
<path fill="#EDD082" opacity="1.000000" stroke="none" 
	d="
M617.449402,411.081207 
	C617.039001,410.636475 617.021851,410.170166 617.002319,409.355011 
	C619.499634,408.816742 621.999268,408.627380 624.743103,408.712341 
	C622.605774,409.677673 620.224182,410.368683 617.449402,411.081207 
z"/>
</svg>