<?xml version="1.0" standalone="no"?>
<!DOCTYPE svg PUBLIC "-//W3C//DTD SVG 20010904//EN"
 "http://www.w3.org/TR/2001/REC-SVG-20010904/DTD/svg10.dtd">
<svg version="1.0" xmlns="http://www.w3.org/2000/svg"
 width="747.000000pt" height="652.000000pt" viewBox="0 0 747.000000 652.000000"
 preserveAspectRatio="xMidYMid meet">

<g transform="translate(0.000000,652.000000) scale(0.100000,-0.100000)"
fill="#000000" stroke="none">
<path d="M5470 6350 c-207 -49 -363 -239 -377 -456 -15 -232 127 -438 350
-506 94 -28 245 -23 327 12 197 84 320 266 320 473 0 179 -127 373 -289 444
-95 41 -238 55 -331 33z m305 -315 c74 -43 94 -132 50 -221 -25 -50 -157 -208
-189 -226 -13 -8 -34 2 -94 43 -196 134 -243 208 -198 312 34 79 128 111 201
68 36 -21 37 -21 53 -1 23 27 71 50 106 50 16 0 48 -11 71 -25z"/>
<path d="M6771 6175 c-250 -70 -400 -325 -336 -570 22 -84 62 -152 125 -215
260 -260 698 -137 785 221 56 227 -72 465 -294 550 -74 28 -206 35 -280 14z
m240 -29 c79 -24 131 -56 194 -120 48 -48 69 -78 94 -140 31 -76 33 -85 29
-180 -3 -88 -8 -110 -35 -169 -120 -254 -446 -338 -668 -169 -104 79 -163 189
-172 322 -15 207 112 392 311 455 56 18 191 18 247 1z"/>
<path d="M6959 5901 c-16 -16 -29 -37 -29 -46 0 -22 -148 -91 -163 -76 -18 18
-83 13 -108 -8 -18 -14 -24 -29 -24 -61 0 -32 6 -47 24 -61 26 -21 82 -25 110
-8 14 10 32 6 90 -16 39 -16 71 -34 71 -41 0 -7 12 -26 26 -43 69 -82 191 17
124 102 -26 33 -64 42 -101 23 -28 -14 -35 -13 -96 9 -36 13 -70 28 -75 33 -6
6 19 23 66 45 71 34 77 35 105 21 37 -19 75 -10 101 23 27 34 25 75 -5 107
-33 36 -78 35 -116 -3z"/>
<path d="M331 5965 c-70 -20 -111 -46 -160 -101 -131 -149 -86 -392 91 -490
49 -27 61 -29 153 -29 83 0 107 4 141 22 55 29 118 95 146 151 30 63 36 172
13 241 -52 156 -227 250 -384 206z"/>
<path d="M1036 5308 c-80 -22 -146 -116 -146 -209 0 -52 44 -132 91 -165 47
-32 135 -44 192 -25 52 17 112 82 127 136 46 163 -100 308 -264 263z"/>
<path d="M813 4786 c-106 -34 -204 -123 -245 -224 l-23 -57 -3 -1335 c-1 -807
1 -1331 7 -1325 5 6 44 73 87 150 l79 140 3 818 2 817 38 0 c92 0 5119 0 5140
0 l22 0 0 -1085 c0 -768 -3 -1099 -11 -1137 -14 -65 -73 -130 -134 -147 -29
-8 -684 -11 -2334 -11 l-2293 0 -67 -35 c-56 -30 -71 -43 -90 -81 -12 -26 -19
-49 -16 -53 12 -11 4720 -13 4792 -2 127 20 226 91 286 205 l32 61 3 538 c1
295 5 537 8 537 3 0 31 -22 61 -49 107 -96 226 -141 369 -141 147 0 275 54
375 157 66 68 89 105 126 199 37 95 39 237 5 336 -61 176 -190 297 -372 347
-94 26 -165 26 -266 1 -94 -24 -168 -66 -241 -137 -32 -31 -56 -47 -58 -40 -3
7 -6 300 -7 652 l-3 640 -27 57 c-34 74 -112 152 -186 186 l-57 27 -2480 2
c-2032 1 -2488 -1 -2522 -11z m5015 -199 c62 -41 85 -93 86 -197 l1 -85 -2595
0 -2595 0 -3 67 c-5 120 30 192 113 229 39 18 130 19 2496 16 l2455 -2 42 -28z
m827 -1202 c186 -49 329 -202 368 -396 49 -238 -92 -479 -330 -566 -322 -118
-673 123 -673 462 0 99 11 147 52 233 60 125 212 246 340 271 70 14 180 12
243 -4z"/>
<path d="M6485 3259 c-131 -17 -235 -133 -235 -264 0 -51 45 -168 118 -308 85
-164 118 -217 136 -217 17 0 157 204 219 320 63 117 80 181 67 248 -28 152
-151 241 -305 221z m95 -164 c37 -19 60 -62 60 -111 0 -53 -53 -104 -109 -104
-78 0 -121 42 -121 118 0 87 90 138 170 97z"/>
<path d="M6618 4751 c-192 -62 -318 -236 -318 -441 0 -230 153 -410 382 -451
238 -43 485 129 530 370 42 226 -95 454 -313 522 -79 25 -203 24 -281 0z"/>
<path d="M1025 3461 c-11 -5 -29 -19 -40 -31 -19 -21 -20 -36 -20 -360 0 -328
1 -339 21 -367 11 -15 32 -31 45 -34 40 -12 1979 -10 2020 1 70 20 70 19 67
405 -3 343 -3 345 -26 367 l-23 23 -1012 2 c-556 1 -1021 -2 -1032 -6z m1915
-396 l0 -215 -895 0 -895 0 0 215 0 215 895 0 895 0 0 -215z"/>
<path d="M4730 3438 c-29 -15 -56 -40 -77 -70 -40 -61 -47 -119 -41 -361 4
-178 5 -184 31 -230 16 -26 47 -60 69 -75 l41 -27 361 -3 c393 -3 410 -1 470
54 60 56 66 86 66 337 0 184 -3 235 -16 265 -19 47 -58 88 -106 113 -35 18
-63 19 -395 19 -352 0 -360 0 -403 -22z m728 -170 c18 -18 17 -392 -2 -407 -9
-8 -105 -11 -332 -9 l-319 3 -3 200 c-1 110 0 205 2 212 7 18 636 19 654 1z"/>
<path d="M672 2029 c-55 -101 -107 -196 -115 -210 -14 -26 -62 -55 -320 -194
-59 -32 -105 -61 -101 -64 3 -3 96 -56 207 -117 l202 -111 112 -202 c62 -110
115 -202 118 -203 3 -2 54 87 114 197 l109 200 203 113 c112 62 208 117 212
121 5 5 -86 59 -201 121 l-209 113 -107 196 c-58 108 -110 202 -115 210 -6 9
-38 -40 -109 -170z"/>
<path d="M5004 681 c-40 -25 -68 -83 -61 -128 9 -52 33 -82 83 -104 57 -26
109 -13 153 36 26 30 31 44 31 87 0 45 -4 54 -39 89 -34 35 -44 39 -87 39 -30
0 -61 -7 -80 -19z"/>
<path d="M3346 652 c-2 -4 9 -50 25 -102 15 -52 28 -104 29 -115 0 -11 -14
-65 -30 -120 -16 -54 -27 -101 -25 -103 2 -2 53 10 113 27 l110 31 107 -31
c59 -17 109 -29 111 -27 2 2 -10 53 -27 113 l-31 108 31 110 c18 60 31 111 29
112 -2 2 -46 -10 -98 -26 -52 -15 -107 -29 -121 -29 -14 0 -69 13 -122 29 -54
16 -99 26 -101 23z"/>
</g>
</svg>
