<svg width="81" height="81" viewBox="0 0 81 81" fill="none" xmlns="http://www.w3.org/2000/svg">
<circle cx="40.7451" cy="40.2353" r="39.8039" fill="#FFF5D9"/>
<g clip-path="url(#clip0_423_290)">
<path d="M35.0475 29.5736H46.4428L48.9021 27.6061C49.7394 26.938 50.0521 25.8533 49.6981 24.8412C49.3442 23.829 48.4244 23.1765 47.3554 23.1765H34.1348C33.0658 23.1765 32.146 23.8304 31.7921 24.8412C31.4381 25.8519 31.7508 26.938 32.5867 27.6047L35.0475 29.5736Z" fill="#FFBB38"/>
<path d="M46.6375 31.7059H34.8527C30.9704 35.5172 27.951 42.2042 27.951 47.6986C27.951 52.4736 30.4785 57.2942 36.125 57.2942H45.7206C50.544 57.2942 53.5392 53.6166 53.5392 47.6986C53.5392 42.2042 50.5198 35.5172 46.6375 31.7059ZM40.2049 43.4339H41.2853C42.9471 43.4339 44.299 44.7858 44.299 46.4476C44.299 47.9417 43.2215 49.1713 41.8113 49.4215V50.5403C41.8113 51.1288 41.3336 51.6065 40.7451 51.6065C40.1566 51.6065 39.6789 51.1288 39.6789 50.5403V49.4755H38.2574C37.6688 49.4755 37.1912 48.9979 37.1912 48.4094C37.1912 47.8208 37.6688 47.3432 38.2574 47.3432H41.2853C41.7715 47.3432 42.1667 46.948 42.1667 46.4618C42.1667 45.9614 41.7715 45.5662 41.2853 45.5662H40.2049C38.5431 45.5662 37.1912 44.2143 37.1912 42.5525C37.1912 41.0584 38.2687 39.8288 39.6789 39.5786V38.4584C39.6789 37.8699 40.1566 37.3922 40.7451 37.3922C41.3336 37.3922 41.8113 37.8699 41.8113 38.4584V39.5246H43.2329C43.8214 39.5246 44.299 40.0022 44.299 40.5907C44.299 41.1793 43.8214 41.6569 43.2329 41.6569H40.2049C39.7187 41.6569 39.3235 42.0521 39.3235 42.5383C39.3235 43.0387 39.7187 43.4339 40.2049 43.4339Z" fill="#FFBB38"/>
</g>
<defs>
<clipPath id="clip0_423_290">
<rect width="34.1176" height="34.1176" fill="white" transform="translate(23.6863 23.1765)"/>
</clipPath>
</defs>
</svg>
